<svg width="980" height="344" viewBox="0 0 980 344" fill="none" xmlns="http://www.w3.org/2000/svg">
<path d="M375 1.60007C357.5 4.10007 346 7.30007 329.5 14.3001C300 26.8001 266.4 49.8001 231.5 81.5001C187 122 160.1 140.5 131.7 150.2C110.5 157.5 92.7 152.8 81.9 137.1C77.5 130.5 76.2 126.7 74.9 115.4C73.6 104.1 75.2 91.4001 78.7 84.0001C82.5 76.0001 96.4 62.6001 106 57.6001C122.2 49.2001 126 45.4001 126 37.8001C126 35.9001 124.9 32.1001 123.5 29.3001C118.9 20.2001 109.7 15.1001 96.5 14.2001C79.6 13.2001 65.5 20.3001 46.4 39.4001C3.09998 82.9001 -9.70001 129.8 7.49999 181.6C13.5 199.8 26.3 222.6 38.5 237C46.7 246.7 67.2 267 78.5 276.8C115.4 308.5 167.6 331.9 219.5 340C236.5 342.7 268 343.7 285.9 342.1C321.6 338.9 351.3 330.8 381.5 316.1C406.6 303.8 426.4 289.7 445 271C457.4 258.4 463.4 251 477.5 230.5C483.9 221.1 489.4 213.4 489.8 213.3C490.2 213.1 493.1 217.3 496.4 222.6C520.9 262.8 555.2 294.3 598 315.9C615.9 325 627.2 329.4 643.2 333.5C683.3 343.9 727.7 345.8 766.5 339C824.3 328.8 875.6 302.5 918.2 261.2C957.9 222.7 977.5 185 979.7 143C980.8 123.2 976.8 105.3 967.1 85.5001C943.8 38.2001 906.6 9.00007 877.5 15.0001C862.7 18.1001 854 26.7001 854 38.5001C854 42.2001 854.6 43.6001 857.5 46.9001C859.5 49.0001 863.6 52.0001 866.7 53.4001C874.6 57.2001 886.9 65.3001 890.7 69.2001C909.8 89.1001 910.7 127.8 892.4 143.9C884.2 151.1 880.1 152.5 867 152.4C853.3 152.4 845.5 150.2 828.5 141.5C807.3 130.7 786.2 115.1 751.4 84.3001C738.8 73.1001 723.6 60.2001 717.5 55.5001C681.8 27.7001 648.9 10.5001 618.6 3.90007C607.2 1.40007 579 0.300068 567.5 1.80007C544.6 4.90007 519.9 17.1001 499.7 35.5001L490 44.2001L480.9 36.0001C465.3 22.0001 445.6 10.4001 428.7 5.10007C425.1 4.00007 417.5 2.60007 411.9 2.00007C402.4 1.10007 380.6 0.800068 375 1.60007Z" fill="#FF9000"/>
</svg>
